<?xml version="1.0" encoding="utf-8"?>
<!-- Generator: Adobe Illustrator 18.1.1, SVG Export Plug-In . SVG Version: 6.00 Build 0)  -->
<!DOCTYPE svg PUBLIC "-//W3C//DTD SVG 1.1//EN" "http://www.w3.org/Graphics/SVG/1.1/DTD/svg11.dtd">
<svg version="1.1" id="Layer_1" xmlns="http://www.w3.org/2000/svg" xmlns:xlink="http://www.w3.org/1999/xlink" x="0px" y="0px"
	 viewBox="0 0 1024 768" enable-background="new 0 0 1024 768" xml:space="preserve">
<g>
	
		<polygon fill="#EE4036" stroke="#000000" stroke-width="1.1468" stroke-linecap="square" stroke-linejoin="round" stroke-miterlimit="10" points="
		57.1,120.5 105.6,120.5 82.4,163.7 29.7,163.7 43.3,138.3 48.3,138.3 	"/>
	
		<polygon fill="#EE4036" stroke="#000000" stroke-width="1.1468" stroke-linecap="square" stroke-linejoin="round" stroke-miterlimit="10" points="
		119.7,120.5 105.6,120.5 97.4,135.9 117.9,173.4 194,173.4 202.3,159.7 216.5,159.7 229.5,136 255.1,136 242.6,113.4 212.7,113.4 
		201.4,134.2 183.9,134.2 179.7,126.5 123.4,126.5 	"/>
	
		<polygon fill="#EE4036" stroke="#000000" stroke-width="1.1468" stroke-linecap="square" stroke-linejoin="round" stroke-miterlimit="10" points="
		256.4,91 242.6,113.4 255.1,136 299.7,136 306.1,146 321.8,146 336.9,118.5 342.4,118.5 351.4,105 342,91 	"/>
	
		<polygon fill="#EE4036" stroke="#000000" stroke-width="1.1468" stroke-linecap="square" stroke-linejoin="round" stroke-miterlimit="10" points="
		82.4,163.7 90.3,178.7 73.1,208.3 78.5,216.5 185,216.5 202.7,187.7 194,173.4 117.9,173.4 97.4,135.9 	"/>
	
		<polygon fill="#EE4036" stroke="#000000" stroke-width="1.1468" stroke-linecap="square" stroke-linejoin="round" stroke-miterlimit="10" points="
		233.2,187.2 202.7,187.2 185,216.5 267.9,216.5 275.3,203.6 287.1,203.6 283.5,211.8 296.1,211.8 300.9,200.9 293.8,187.8 
		302.6,174.2 308.1,181.1 315.7,168.7 311.5,159.8 292.2,159.8 289.8,156.8 259.7,156.8 252.9,168.3 243.9,168.3 	"/>
	
		<polygon fill="#EE4036" stroke="#000000" stroke-width="1.1468" stroke-linecap="square" stroke-linejoin="round" stroke-miterlimit="10" points="
		78.5,216.5 55.7,254.5 60.9,265.4 49.2,285.5 61.4,306.7 97.4,306.7 149.5,216.5 	"/>
	
		<polygon fill="#EE4036" stroke="#000000" stroke-width="1.1468" stroke-linecap="square" stroke-linejoin="round" stroke-miterlimit="10" points="
		173.2,244.7 202.7,244.7 217.1,216.5 149.5,216.5 97.4,306.7 116.9,340.3 	"/>
	
		<polygon fill="#EE4036" stroke="#000000" stroke-width="1.1468" stroke-linecap="square" stroke-linejoin="round" stroke-miterlimit="10" points="
		152.8,306.7 136.7,306.7 173.2,244.7 202.7,244.7 217.1,216.5 267.9,216.5 261.7,228.2 250.4,228.2 232.5,261.6 214.7,261.6 
		208.8,275.5 202.3,275.5 186.3,302.9 178.3,302.9 171.6,315.3 182.5,334.3 175.3,345.9 	"/>
	
		<polygon fill="#EE4036" stroke="#000000" stroke-width="1.1468" stroke-linecap="square" stroke-linejoin="round" stroke-miterlimit="10" points="
		61.4,306.7 54.1,319.4 74.6,355.7 81.6,342.9 73.5,327.1 76.7,321.2 107.6,374.1 116.7,374.1 133.1,404.6 143.2,404.6 150.8,418.3 
		159.8,402.7 154.8,394.5 149.5,394.5 144,385.8 144,382.7 146.3,380.8 138.1,366.4 142.8,357.1 135.3,344.6 132.4,351.7 
		123.3,351.7 97.4,306.7 	"/>
</g>
<g>
	
		<polygon fill="#652D90" stroke="#000000" stroke-width="1.1468" stroke-linecap="square" stroke-linejoin="round" stroke-miterlimit="10" points="
		407.7,334 444.2,334 450.6,346.7 463.5,346.7 470.1,360.5 510.8,360.5 484,406.6 396.3,406.6 380.3,381 	"/>
	
		<polygon fill="#652D90" stroke="#000000" stroke-width="1.1468" stroke-linecap="square" stroke-linejoin="round" stroke-miterlimit="10" points="
		559.6,356.8 513,356.8 510.8,360.5 484,406.6 518.6,406.6 533.4,433 594.6,433 565,381.7 568.8,375 	"/>
	
		<polygon fill="#652D90" stroke="#000000" stroke-width="1.1468" stroke-linecap="square" stroke-linejoin="round" stroke-miterlimit="10" points="
		396.3,406.6 419.1,448.7 474.3,448.7 490.9,478.9 559.6,478.9 533.4,433 518.6,406.6 	"/>
	
		<polygon fill="#652D90" stroke="#000000" stroke-width="1.1468" stroke-linecap="square" stroke-linejoin="round" stroke-miterlimit="10" points="
		485.7,489.7 490.9,478.9 559.6,478.9 570.4,498.8 544.4,541.8 499.4,541.8 506.6,527.9 	"/>
	
		<polygon fill="#652D90" stroke="#000000" stroke-width="1.1468" stroke-linecap="square" stroke-linejoin="round" stroke-miterlimit="10" points="
		614.1,498.5 624,498.5 643.7,461 610.3,461 594.6,433 533.4,433 570.4,498.8 544.4,541.8 588.6,541.8 	"/>
	
		<polygon fill="#652D90" stroke="#000000" stroke-width="1.1468" stroke-linecap="square" stroke-linejoin="round" stroke-miterlimit="10" points="
		499.4,541.8 529.1,596.6 568.1,596.6 577.1,581.1 584.1,581.1 597.6,555.6 588.6,541.8 	"/>
</g>
<g>
	<polygon fill="#26A9E0" stroke="#000000" stroke-linecap="square" stroke-linejoin="round" stroke-miterlimit="10" points="
		827.7,531.9 810.2,531.9 793.3,562.3 770.1,562.3 760.6,580.7 752.3,580.7 746.3,592.2 746.3,594.8 753.3,605 753.3,607.2 
		741.9,626.6 734.5,626.6 727.7,636.4 737.4,652.2 751.3,652.2 758.3,638.3 787.7,638.3 832.6,558.5 826.6,546.6 833.4,538.8 	"/>
	<polygon fill="#26A9E0" stroke="#000000" stroke-linecap="square" stroke-linejoin="round" stroke-miterlimit="10" points="
		846.1,535.8 856.9,535.8 890.7,594.4 882.5,608.3 888.6,619.9 872.8,646.5 862.1,646.5 848.6,670 817.1,670 808.9,652.2 
		794.4,652.2 787.7,638.3 	"/>
</g>
<polygon fill="#F6921E" stroke="#000000" stroke-width="1.1468" stroke-linecap="square" stroke-linejoin="round" stroke-miterlimit="10" points="
	617.2,420 610.1,431.1 620.1,446.8 670,446.8 697.6,399.5 687.8,383.8 651.5,383.8 625,338.8 598.4,384.6 "/>
<polygon fill="#F6921E" stroke="#000000" stroke-width="1.1468" stroke-linecap="square" stroke-linejoin="round" stroke-miterlimit="10" points="
	592.9,375 583.8,375 573.1,353.5 586.7,334 604.6,334 620.1,306.7 642.9,306.7 625,338.8 598.4,384.6 "/>
<polygon fill="#F6921E" stroke="#000000" stroke-width="1.1468" stroke-linecap="square" stroke-linejoin="round" stroke-miterlimit="10" points="
	674,347.7 665,359.2 665,361.3 677.5,383.8 651.5,383.8 625,338.8 642.9,306.7 672.1,306.7 662,325.5 "/>
<polygon fill="#F6921E" stroke="#000000" stroke-width="1.1468" stroke-linecap="square" stroke-linejoin="round" stroke-miterlimit="10" points="
	687.8,306.7 672.1,306.7 662,325.5 674,347.7 687.5,372.4 704.6,372.4 710.9,384.2 722.3,366.6 "/>
<polygon fill="#F6921E" stroke="#000000" stroke-width="1.1468" stroke-linecap="square" stroke-linejoin="round" stroke-miterlimit="10" points="
	734.8,384.2 710.9,384.2 722.3,366.6 679.9,292.9 689.3,275.4 735.7,275.4 725.8,293.6 756.5,345.2 756.5,347.7 "/>
<polygon fill="#F6921E" stroke="#000000" stroke-width="1.1468" stroke-linecap="square" stroke-linejoin="round" stroke-miterlimit="10" points="
	769,446.8 734.8,384.2 756.5,347.7 756.5,346.5 818.8,346.5 779,416.5 783.3,424 "/>
<polygon fill="#F6921E" stroke="#000000" stroke-width="1.1468" stroke-linecap="square" stroke-linejoin="round" stroke-miterlimit="10" points="
	856.3,346.5 818.8,346.5 799.7,380 813.1,407.4 819.1,407.4 830.7,429.1 825.7,437.7 841.5,467.3 850.3,455.3 850.3,452.4 
	843.2,441.1 850.9,428.9 830.2,392.8 "/>
<polygon fill="#F6921E" stroke="#000000" stroke-width="1.1468" stroke-linecap="square" stroke-linejoin="round" stroke-miterlimit="10" points="
	886.5,346.5 856.3,346.5 830.2,392.8 850.9,428.9 858.3,442.6 866.1,442.6 872.8,428.9 868.5,422.5 872.8,417.2 858,394.6 
	863.9,386.3 866.9,391.6 879.7,391.6 882.4,384.1 890.1,384.1 898.4,366.8 "/>
<polygon fill="#F6921E" stroke="#000000" stroke-width="1.1468" stroke-linecap="square" stroke-linejoin="round" stroke-miterlimit="10" points="
	631.8,269.2 635.6,275.4 689.3,275.4 679.9,292.9 687.8,306.7 608,306.7 608,302.6 599.7,303 590.6,288 599.7,272.3 617.1,272.3 
	618.3,269.2 "/>
<polygon fill="#F6921E" stroke="#000000" stroke-width="1.1468" stroke-linecap="square" stroke-linejoin="round" stroke-miterlimit="10" points="
	885.9,322.5 893.1,333.6 886.5,346.5 782.9,346.5 796.3,322.5 "/>
<polygon fill="#F6921E" stroke="#000000" stroke-width="1.1468" stroke-linecap="square" stroke-linejoin="round" stroke-miterlimit="10" points="
	810,298.7 796.3,322.5 885.9,322.5 879.2,310.6 865.1,310.6 859,298.7 "/>
<polygon fill="#F6921E" stroke="#000000" stroke-linecap="square" stroke-linejoin="round" stroke-miterlimit="10" points="
	844.9,274.5 793,274.5 775.9,242.5 755.1,242.5 744.5,260.3 735.7,275.3 725.8,293.6 756.5,345.2 756.5,346.5 782.9,346.5 
	809.9,298.5 858.9,298.5 "/>
<polygon fill="#F6921E" stroke="#000000" stroke-width="1.1468" stroke-linecap="square" stroke-linejoin="round" stroke-miterlimit="10" points="
	877.1,242.8 775.9,242.8 793,274.2 844.9,274.2 865.6,274.2 877.1,296.9 887.3,283.9 873.8,260.9 881.3,251.1 "/>
<polygon fill="#F6921E" stroke="#000000" stroke-width="1.1468" stroke-linecap="square" stroke-linejoin="round" stroke-miterlimit="10" points="
	878.9,198.3 891.4,219.1 877.1,242.8 755.1,242.8 743.1,220.6 695.7,220.6 710,198.3 "/>
<polygon fill="#F6921E" stroke="#000000" stroke-width="1.1468" stroke-linecap="square" stroke-linejoin="round" stroke-miterlimit="10" points="
	654.6,275.4 662,265.4 649.5,243.8 639.1,243.8 635.5,237.3 622.9,237.3 617.3,247.7 610.4,235.9 591.1,235.9 582.2,220.6 
	743.1,220.6 755.1,242.8 735.7,275.4 "/>
<polygon fill="#26A9E0" stroke="#000000" stroke-linecap="square" stroke-linejoin="round" stroke-miterlimit="10" points="
	821.9,477.2 832.3,496.8 851.7,496.8 858.7,482.8 873.5,482.8 878.6,494.7 896.2,494.7 906.6,514.4 914.8,514.4 925.3,533 
	899.3,533 891.3,518.5 878.2,518.5 875.7,525.3 861.3,525.3 856.3,513.9 820,513.9 806.2,486.4 812,477.2 "/>
<polygon fill="#F6921E" stroke="#000000" stroke-width="1.1468" stroke-linecap="square" stroke-linejoin="round" stroke-miterlimit="10" points="
	908.3,218.9 927.3,250.8 924.7,254 936.5,273.2 926.4,289.8 918.6,289.8 911,303.8 892.9,303.8 901.2,289.5 898.9,285 904.8,276.2 
	910.4,276.2 914.7,266.4 898.1,235.9 "/>
<polygon fill="#F6921E" stroke="#000000" stroke-width="1.1468" stroke-linecap="square" stroke-linejoin="round" stroke-miterlimit="10" points="
	920.4,200.9 927.8,187.5 911.9,159 918.1,151.6 911.9,140.9 925,140.9 908.8,113.4 846.3,113.4 841.6,121.3 796,198.3 859.4,198.3 
	848.3,184.3 856.4,172.5 878.5,172.5 887.3,156.4 901.5,179.5 909,179.5 "/>
<polygon fill="#F6921E" stroke="#000000" stroke-width="1.1468" stroke-linecap="square" stroke-linejoin="round" stroke-miterlimit="10" points="
	715.4,121.4 713.5,126.3 719.2,126.3 715.1,133.2 699.4,133.2 677.7,169.6 695.7,169.6 710,198.3 796,198.3 840.9,121.4 "/>
<polygon fill="#F6921E" stroke="#000000" stroke-width="1.1468" stroke-linecap="square" stroke-linejoin="round" stroke-miterlimit="10" points="
	706.3,120.3 630.5,120.3 621.1,140.5 601,140.5 585.8,113.4 599.2,113.4 603,120.6 615.4,120.6 603.6,97.9 578.8,97.9 575.9,93 
	553.5,93 597.8,169.6 677.8,169.6 "/>
<polygon fill="#F6921E" stroke="#000000" stroke-width="1.1468" stroke-linecap="square" stroke-linejoin="round" stroke-miterlimit="10" points="
	581.2,140.9 562,172.5 554.6,172.5 582.2,220.6 695.7,220.6 710,198.3 695.7,169.6 597.8,169.6 "/>
<g>
	
		<polygon fill="#2B388F" stroke="#000000" stroke-width="1.1468" stroke-linecap="square" stroke-linejoin="round" stroke-miterlimit="10" points="
		522,93 553.5,93 581.2,140.9 573,154.4 542.5,154.4 549.7,142.2 540.6,142.2 550.6,124.3 533.9,124.3 523.1,142.3 529.1,152.8 
		523,163.8 526.4,168.6 519.3,180.2 506.8,180.2 501.4,167.6 492.7,167.6 485,180.2 472.4,180.2 463.1,163.1 478,137.1 493,137.1 
		508.1,108 514,108 	"/>
	
		<polygon fill="#2B388F" stroke="#000000" stroke-width="1.1468" stroke-linecap="square" stroke-linejoin="round" stroke-miterlimit="10" points="
		546.6,172.5 554.6,172.5 571.8,202.4 552.8,234.3 538.5,234.3 523.4,206.9 535.1,185.5 540.8,185.5 	"/>
	
		<polygon fill="#2B388F" stroke="#000000" stroke-width="1.1468" stroke-linecap="square" stroke-linejoin="round" stroke-miterlimit="10" points="
		582.6,250.9 591.1,235.9 571.8,202.4 552.8,234.3 578.9,280.1 590,261.4 	"/>
	
		<polygon fill="#2B388F" stroke="#000000" stroke-width="1.1468" stroke-linecap="square" stroke-linejoin="round" stroke-miterlimit="10" points="
		538.5,234.3 526.8,255.9 526.8,258.8 528.6,260.7 537.1,260.7 550.8,285 545.4,293.9 552.4,304.6 564.2,304.6 572.4,293.9 
		566.1,286 569.3,280.1 578.9,280.1 552.8,234.3 	"/>
	
		<polygon fill="#2B388F" stroke="#000000" stroke-width="1.1468" stroke-linecap="square" stroke-linejoin="round" stroke-miterlimit="10" points="
		497.8,183 509.7,206.9 479.1,259.6 473.1,259.6 465.4,275.5 454.7,275.5 447.9,288.9 432,262.5 437.7,251.6 430.9,241.2 
		423.3,241.2 419.2,232.1 459.6,232.1 470.3,215.6 487.2,215.6 492.8,204.2 488.8,196.9 	"/>
	
		<polygon fill="#2B388F" stroke="#000000" stroke-width="1.1468" stroke-linecap="square" stroke-linejoin="round" stroke-miterlimit="10" points="
		413.3,262.5 432,262.5 447.9,288.9 446,293 451,293 441.7,308.8 423.3,308.8 427.4,300.4 414.2,300.4 411.2,305.7 386.9,305.7 	"/>
	
		<polygon fill="#2B388F" stroke="#000000" stroke-width="1.1468" stroke-linecap="square" stroke-linejoin="round" stroke-miterlimit="10" points="
		433,142.7 452.6,142.7 444.7,153.1 451.8,153.1 441.3,170.6 453.7,194.8 461.8,194.8 455,206.9 416.5,206.9 422.3,192.6 
		429.1,192.6 434.2,184.9 425,170.6 430.4,161.8 430.4,159.6 421.8,159.6 	"/>
	
		<polygon fill="#2B388F" stroke="#000000" stroke-width="1.1468" stroke-linecap="square" stroke-linejoin="round" stroke-miterlimit="10" points="
		400.7,179.3 410,179.3 412.7,173.3 418.5,173.3 423.2,181.4 423.2,184.2 420.5,187.4 414.3,187.4 411.9,194.3 394.7,194.3 	"/>
	
		<polygon fill="#2B388F" stroke="#000000" stroke-width="1.1468" stroke-linecap="square" stroke-linejoin="round" stroke-miterlimit="10" points="
		523.4,206.9 509.7,206.9 479.1,259.6 487.6,259.6 497.7,278.2 504.7,278.2 513.5,294.6 513.5,296.6 508.1,304.6 520.2,304.6 
		525.8,293.7 527.1,293.7 528.4,295.9 534.9,295.9 534.9,294.1 523.8,274.2 518,274.2 510.1,257.5 514.5,249.9 523.8,249.9 
		526.8,255.9 538.5,234.3 	"/>
</g>
<g>
	
		<polygon fill="#006838" stroke="#000000" stroke-width="1.1468" stroke-linecap="square" stroke-linejoin="round" stroke-miterlimit="10" points="
		164.5,394.7 225.3,394.7 167.8,494.6 159.8,478.7 147.2,478.7 132.2,452.2 150.8,418.3 159.8,402.7 	"/>
	
		<polygon fill="#006838" stroke="#000000" stroke-width="1.1468" stroke-linecap="square" stroke-linejoin="round" stroke-miterlimit="10" points="
		167.8,494.6 173.3,504.4 187.1,504.4 203.2,535 197.8,541.8 210.7,561.3 245.9,501.4 204.8,430.3 	"/>
	
		<polygon fill="#006838" stroke="#000000" stroke-width="1.1468" stroke-linecap="square" stroke-linejoin="round" stroke-miterlimit="10" points="
		304.8,501.4 273.4,555.3 282.2,569.5 252.6,620.9 266.7,646.6 249.1,646.6 206,568.9 210.7,561.3 245.9,501.4 	"/>
	
		<polygon fill="#006838" stroke="#000000" stroke-width="1.1468" stroke-linecap="square" stroke-linejoin="round" stroke-miterlimit="10" points="
		230.6,403.6 256.3,403.6 264.4,420.4 276.7,420.4 287.1,441.7 306.4,441.7 314.3,457.5 314.3,459.6 296.9,487.7 304.8,501.4 
		245.9,501.4 204.8,430.3 225.3,394.7 	"/>
</g>
<polygon fill="#26A9E0" stroke="#000000" stroke-linecap="square" stroke-linejoin="round" stroke-miterlimit="10" points="
	899.8,601.5 907.9,601.5 914,613.7 910.8,616.5 915.2,616.5 921.3,628.6 902.9,661.5 897.6,661.5 888.6,678.5 871.1,678.5 
	888.6,644.5 893.9,644.5 903.3,627.8 899,619.1 905.1,610 "/>
<path fill="none" stroke="#FFFFFF" stroke-width="4" stroke-miterlimit="10" stroke-dasharray="4.7066,4.7066,4.7066,4.7066,4.7066,4.7066" d="
	M351.3,105c9.1,0.4,29.3,2.3,49.7,12.2c18.1,8.8,27.7,19.8,31.9,25.5"/>
<path fill="none" stroke="#FFFFFF" stroke-width="4" stroke-miterlimit="10" stroke-dasharray="4.7066,4.7066,4.7066,4.7066,4.7066,4.7066" d="
	M315.6,168.7c0,0,50.4-5.5,26.7-50.2"/>
<path fill="none" stroke="#FFFFFF" stroke-width="4" stroke-miterlimit="10" stroke-dasharray="4.7066,4.7066,4.7066,4.7066,4.7066,4.7066" d="
	M314.2,457.5c0,0,6.2-38.5,91.1-34.2"/>
<path fill="none" stroke="#FFFFFF" stroke-width="4" stroke-miterlimit="10" stroke-dasharray="4.7066,4.7066,4.7066,4.7066,4.7066,4.7066" d="
	M508.1,304.6c0,0-17.9,16.6-38,55.9"/>
<path fill="none" stroke="#FFFFFF" stroke-width="4" stroke-miterlimit="10" stroke-dasharray="4.7066,4.7066,4.7066,4.7066,4.7066,4.7066" d="
	M552.3,304.6c0,0,3.8,19.8-10.8,52.1"/>
<line fill="none" stroke="#FFFFFF" stroke-width="4" stroke-miterlimit="10" stroke-dasharray="4.7066,4.7066,4.7066,4.7066,4.7066,4.7066" x1="411.2" y1="305.7" x2="420.8" y2="334"/>
<line fill="none" stroke="#FFFFFF" stroke-width="4" stroke-miterlimit="10" stroke-dasharray="4.7066,4.7066,4.7066,4.7066,4.7066,4.7066" x1="582.7" y1="412.4" x2="592.9" y2="375"/>
<line fill="none" stroke="#FFFFFF" stroke-width="4" stroke-miterlimit="10" stroke-dasharray="4.7066,4.7066,4.7066,4.7066,4.7066,4.7066" x1="643.7" y1="461" x2="658.4" y2="446.8"/>
<line fill="none" stroke="#FFFFFF" stroke-width="4" stroke-miterlimit="10" stroke-dasharray="4.7066,4.7066,4.7066,4.7066,4.7066,4.7066" x1="856.3" y1="513.9" x2="846.1" y2="535.8"/>
<line fill="none" stroke="#FFFFFF" stroke-width="4" stroke-miterlimit="10" stroke-dasharray="4.7066,4.7066,4.7066,4.7066,4.7066,4.7066" x1="899" y1="619.2" x2="882.5" y2="608.3"/>
<path fill="none" stroke="#FFFFFF" stroke-width="4" stroke-miterlimit="10" stroke-dasharray="4.7066,4.7066,4.7066,4.7066,4.7066,4.7066" d="
	M760.8,431.9c0,0-13.3,55.4,59.2,82.1"/>
<path fill="none" stroke="#FFFFFF" stroke-width="4" stroke-miterlimit="10" stroke-dasharray="4.7066,4.7066,4.7066,4.7066,4.7066,4.7066" d="
	M841.5,467.3c0,0,9.6,8.8,17.1,15.5"/>
<path fill="none" stroke="#FFFFFF" stroke-width="4" stroke-miterlimit="10" stroke-dasharray="4.7066,4.7066,4.7066,4.7066,4.7066,4.7066" d="
	M921.3,628.7c0,0,22.1-52.4,3.9-95.7"/>
<path fill="none" stroke="#FFFFFF" stroke-width="4" stroke-miterlimit="10" stroke-dasharray="4.7066,4.7066,4.7066,4.7066,4.7066,4.7066" d="
	M924.9,140.9c0,0,24.1-24.5,70-24.5"/>
<path fill="none" stroke="#FFFFFF" stroke-width="4" stroke-miterlimit="10" stroke-dasharray="4.7066,4.7066,4.7066,4.7066,4.7066,4.7066" d="
	M470.2,215.6c0,0,2.2-15.4-8.5-20.7"/>
<line fill="none" stroke="#FFFFFF" stroke-width="4" stroke-miterlimit="10" stroke-dasharray="4.7066,4.7066,4.7066,4.7066,4.7066,4.7066" x1="516" y1="204.2" x2="519.2" y2="180.2"/>
<line fill="none" stroke="#FFFFFF" stroke-width="4" stroke-miterlimit="10" stroke-dasharray="4.7066,4.7066,4.7066,4.7066,4.7066,4.7066" x1="488.7" y1="196.9" x2="472.3" y2="180.2"/>
<line fill="none" stroke="#FFFFFF" stroke-width="4" stroke-miterlimit="10" stroke-dasharray="4.7066,4.7066,4.7066,4.7066,4.7066,4.7066" x1="910.3" y1="276.2" x2="873.7" y2="260.9"/>
<line fill="none" stroke="#FFFFFF" stroke-width="4" stroke-miterlimit="10" stroke-dasharray="4.7066,4.7066,4.7066,4.7066,4.7066,4.7066" x1="898" y1="235.9" x2="891.3" y2="219.1"/>
<path fill="none" stroke="#FFFFFF" stroke-width="4" stroke-miterlimit="10" stroke-dasharray="4.7066,4.7066,4.7066,4.7066,4.7066,4.7066" d="
	M896.9,296.9c0,0-10.3,3.1-34.7,8"/>
</svg>
